<?xml version="1.0" standalone="yes"?>

<svg version="1.1" viewBox="0.0 0.0 960.0 307.1994750656168" fill="none" stroke="none" stroke-linecap="square" stroke-miterlimit="10" xmlns="http://www.w3.org/2000/svg" xmlns:xlink="http://www.w3.org/1999/xlink"><clipPath id="p.0"><path d="m0 0l960.0 0l0 307.19946l-960.0 0l0 -307.19946z" clip-rule="nonzero"></path></clipPath><g clip-path="url(#p.0)"><path fill="#ffffff" d="m0 0l960.0 0l0 307.19946l-960.0 0z" fill-rule="evenodd"></path><path fill="#000000" fill-opacity="0.0" d="m269.74606 43.110237l468.34647 0l0 258.26773l-468.34647 0z" fill-rule="evenodd"></path><path stroke="#000000" stroke-width="2.0" stroke-linejoin="round" stroke-linecap="butt" d="m269.74606 43.110237l468.34647 0l0 258.26773l-468.34647 0z" fill-rule="evenodd"></path><path fill="#000000" fill-opacity="0.0" d="m290.17914 66.0079l192.25195 0l0 81.54331l-192.25195 0z" fill-rule="evenodd"></path><path stroke="#000000" stroke-width="2.0" stroke-linejoin="round" stroke-linecap="butt" d="m290.17914 66.0079l192.25195 0l0 81.54331l-192.25195 0z" fill-rule="evenodd"></path><path fill="#000000" d="m344.75024 82.835175l0 7.1875l8.078125 0l0 -7.1875l3.015625 0l0 17.984375l-3.015625 0l0 -7.921875l-8.078125 0l0 7.921875l-3.015625 0l0 -17.984375l3.015625 0zm25.999817 0l0 2.859375l-8.671875 0l0 4.328125l8.09375 0l0 2.875l-8.09375 0l0 5.046875l9.09375 0l0 2.875l-12.109375 0l0 -17.984375l11.6875 0zm5.560089 0l0 15.109375l7.78125 0l0 2.875l-10.796875 0l0 -17.984375l3.015625 0zm20.671844 0l0 2.859375l-8.671875 0l0 4.328125l8.09375 0l0 2.875l-8.09375 0l0 5.046875l9.09375 0l0 2.875l-12.109375 0l0 -17.984375l11.6875 0zm5.856964 0l9.625 14.515625l-0.046875 0.046875l-0.453125 -14.5625l3.015625 0l0 17.984375l-3.3125 0l-9.625 -14.515625l0.046875 -0.046875l0.453125 14.5625l-3.015625 0l0 -17.984375l3.3125 0zm23.609467 0l7.640625 17.984375l-3.421875 0l-1.734375 -4.171875l-7.84375 0l-1.75 4.171875l-3.375 0l7.921875 -17.984375l2.5625 0zm-1.3125 3.15625l-2.828125 7.78125l5.453125 0l-2.671875 -7.796875l0.046875 0.015625z" fill-rule="nonzero"></path><path fill="#000000" d="m314.73834 111.835175l0 17.984375l-3.015625 0l0 -17.984375l3.015625 0zm6.5368347 0l9.625 14.515625l-0.046875 0.046875l-0.453125 -14.5625l3.015625 0l0 17.984375l-3.3125 0l-9.625 -14.515625l0.046875 -0.046875l0.453125 14.5625l-3.015625 0l0 -17.984375l3.3125 0zm27.765717 0l0 2.859375l-5.625 0l0 15.125l-3.015625 0l0 -15.125l-5.609375 0l0 -2.859375l14.25 0zm13.05719 0l0 2.859375l-8.671875 0l0 4.328125l8.09375 0l0 2.875l-8.09375 0l0 5.046875l9.09375 0l0 2.875l-12.109375 0l0 -17.984375l11.6875 0zm7.685089 0q3.484375 0 5.21875 1.21875q1.75 1.21875 1.75 3.921875q0 2.0 -1.1875 3.3125q-1.1875 1.296875 -2.75 1.5625l4.90625 7.96875l-3.640625 0l-4.609375 -7.625l-1.8125 0l0 7.625l-3.015625 0l0 -17.984375l5.140625 0zm-0.21875 7.484375q2.234375 0 3.125 -0.546875q0.90625 -0.5625 0.90625 -1.765625q0 -1.171875 -0.796875 -1.734375q-0.796875 -0.578125 -2.6875 -0.578125l-2.453125 0l0 4.625l1.90625 0zm15.398346 -7.484375q2.921875 0 4.609375 1.296875q1.6875 1.296875 1.734375 3.84375q0 2.46875 -1.65625 3.8125q-1.640625 1.34375 -4.328125 1.40625l-3.0 0l0 7.625l-3.015625 0l0 -17.984375l5.65625 0zm0.359375 7.484375q1.359375 0 2.078125 -0.609375q0.734375 -0.609375 0.734375 -1.703125q0 -1.078125 -0.71875 -1.6875q-0.71875 -0.625 -2.09375 -0.625l-3.0 0l0 4.625l3.0 0zm13.356964 -7.484375q3.484375 0 5.21875 1.21875q1.75 1.21875 1.75 3.921875q0 2.0 -1.1875 3.3125q-1.1875 1.296875 -2.75 1.5625l4.90625 7.96875l-3.640625 0l-4.609375 -7.625l-1.8125 0l0 7.625l-3.015625 0l0 -17.984375l5.140625 0zm-0.21875 7.484375q2.234375 0 3.125 -0.546875q0.90625 -0.5625 0.90625 -1.765625q0 -1.171875 -0.796875 -1.734375q-0.796875 -0.578125 -2.6875 -0.578125l-2.453125 0l0 4.625l1.90625 0zm21.429565 -7.484375l0 2.859375l-8.671875 0l0 4.328125l8.09375 0l0 2.875l-8.09375 0l0 5.046875l9.09375 0l0 2.875l-12.109375 0l0 -17.984375l11.6875 0zm14.950714 0l0 2.859375l-5.625 0l0 15.125l-3.015625 0l0 -15.125l-5.609375 0l0 -2.859375l14.25 0zm13.05722 0l0 2.859375l-8.671875 0l0 4.328125l8.09375 0l0 2.875l-8.09375 0l0 5.046875l9.09375 0l0 2.875l-12.109375 0l0 -17.984375l11.6875 0zm7.685089 0q3.484375 0 5.21875 1.21875q1.75 1.21875 1.75 3.921875q0 2.0 -1.1875 3.3125q-1.1875 1.296875 -2.75 1.5625l4.90625 7.96875l-3.640625 0l-4.609375 -7.625l-1.8125 0l0 7.625l-3.015625 0l0 -17.984375l5.140625 0zm-0.21875 7.484375q2.234375 0 3.125 -0.546875q0.90625 -0.5625 0.90625 -1.765625q0 -1.171875 -0.796875 -1.734375q-0.796875 -0.578125 -2.6875 -0.578125l-2.453125 0l0 4.625l1.90625 0z" fill-rule="nonzero"></path><path fill="#000000" fill-opacity="0.0" d="m269.74744 5.821522l468.34644 0l0 37.29134l-468.34644 0z" fill-rule="evenodd"></path><path fill="#000000" d="m444.24686 15.022817q3.484375 0 5.21875 1.218749q1.75 1.21875 1.75 3.921875q0 2.0 -1.1875 3.3125q-1.1875 1.296875 -2.75 1.5625l4.90625 7.96875l-3.640625 0l-4.609375 -7.625l-1.8125 0l0 7.625l-3.015625 0l0 -17.984375l5.140625 0zm-0.21875 7.484374q2.234375 0 3.125 -0.546875q0.90625 -0.5625 0.90625 -1.765625q0 -1.171875 -0.796875 -1.734375q-0.796875 -0.578125 -2.6875 -0.578125l-2.453125 0l0 4.625l1.90625 0zm18.148346 -7.921874q4.03125 0 6.671875 2.671874q2.65625 2.65625 2.703125 6.75q-0.03125 4.1875 -2.71875 6.796875q-2.6875 2.609375 -6.65625 2.640625q-4.046875 0 -6.703125 -2.671875q-2.640625 -2.6875 -2.6875 -6.765625q0 -4.046875 2.640625 -6.703125q2.65625 -2.671874 6.75 -2.718749zm-6.234375 9.421874q0 2.84375 1.78125 4.6875q1.78125 1.828125 4.453125 1.875q2.65625 0 4.40625 -1.859375q1.765625 -1.875 1.8125 -4.703125q0 -2.75 -1.734375 -4.625q-1.734375 -1.875 -4.515625 -1.921875q-2.703125 0.015625 -4.421875 1.90625q-1.71875 1.875 -1.78125 4.640625zm20.79718 -8.984374l0 10.718749q0 2.421875 0.96875 3.609375q0.96875 1.171875 2.921875 1.21875q1.9375 -0.03125 2.890625 -1.21875q0.96875 -1.203125 1.0 -3.515625l0 -10.812499l3.015625 0l0 11.078124q0 3.4375 -1.828125 5.375q-1.8125 1.9375 -5.078125 1.96875q-3.21875 0 -5.0625 -1.953125q-1.828125 -1.96875 -1.84375 -5.421875l0 -11.046874l3.015625 0zm19.41159 -0.4375q3.328125 0 5.453125 2.531249l-2.46875 2.171875q-1.125 -1.78125 -2.984375 -1.828125q-1.4375 0 -2.28125 0.640625q-0.84375 0.640625 -0.84375 1.703125q0 0.9375 0.640625 1.5q0.640625 0.546875 2.65625 1.171875q2.859375 0.828125 4.109375 2.09375q1.265625 1.25 1.265625 3.40625q0 2.484375 -1.84375 3.96875q-1.84375 1.46875 -4.640625 1.5q-1.859375 0 -3.34375 -0.671875q-1.46875 -0.6875 -2.5625 -2.28125l2.546875 -2.078125q0.765625 1.296875 1.625 1.734375q0.875 0.421875 1.859375 0.421875q1.34375 0 2.265625 -0.71875q0.921875 -0.734375 0.921875 -1.734375q0 -0.921875 -0.515625 -1.453125q-0.515625 -0.53125 -1.875 -0.953125l-1.9375 -0.65625q-2.328125 -0.78125 -3.328125 -2.015625q-1.0 -1.25 -1.0 -3.0625q0 -2.390625 1.765625 -3.875q1.765625 -1.499999 4.515625 -1.515624zm10.890839 0.4375l0 17.984375l-3.015625 0l0 -17.984375l3.015625 0zm6.23999 0l0 15.109374l7.78125 0l0 2.875l-10.7969055 0l0 -17.984375l3.0156555 0zm11.999939 0l0 15.109374l7.78125 0l0 2.875l-10.796875 0l0 -17.984375l3.015625 0zm17.390625 -0.4375q4.03125 0 6.671875 2.671874q2.65625 2.65625 2.703125 6.75q-0.03125 4.1875 -2.71875 6.796875q-2.6875 2.609375 -6.65625 2.640625q-4.046875 0 -6.703125 -2.671875q-2.640625 -2.6875 -2.6875 -6.765625q0 -4.046875 2.640625 -6.703125q2.65625 -2.671874 6.75 -2.718749zm-6.234375 9.421874q0 2.84375 1.78125 4.6875q1.78125 1.828125 4.453125 1.875q2.65625 0 4.40625 -1.859375q1.765625 -1.875 1.8125 -4.703125q0 -2.75 -1.734375 -4.625q-1.734375 -1.875 -4.515625 -1.921875q-2.703125 0.015625 -4.421875 1.90625q-1.71875 1.875 -1.78125 4.640625zm21.156555 -8.984374l9.625 14.515624l-0.046875 0.046875l-0.453125 -14.562499l3.015625 0l0 17.984375l-3.3125 0l-9.625 -14.515625l0.046875 -0.046875l0.453125 14.5625l-3.015625 0l0 -17.984375l3.3125 0z" fill-rule="nonzero"></path><path fill="#000000" fill-opacity="0.0" d="m290.17914 159.94278l192.25195 0l0 53.07086l-192.25195 0z" fill-rule="evenodd"></path><path stroke="#000000" stroke-width="2.0" stroke-linejoin="round" stroke-linecap="butt" d="m290.17914 159.94278l192.25195 0l0 53.07086l-192.25195 0z" fill-rule="evenodd"></path><path fill="#000000" d="m317.93097 176.59634q3.984375 0 6.703125 2.734375l-2.203125 2.296875q-1.1875 -1.234375 -2.296875 -1.6875q-1.109375 -0.46875 -2.34375 -0.46875q-2.703125 0 -4.5 1.875q-1.78125 1.859375 -1.84375 4.671875q0.03125 2.921875 1.84375 4.71875q1.828125 1.796875 4.6875 1.84375q2.109375 0 3.734375 -0.796875l0 -4.390625l-3.921875 0l0 -2.875l6.9375 0l0 9.140625q-3.3125 1.796875 -6.859375 1.796875q-4.21875 0 -6.875 -2.65625q-2.65625 -2.65625 -2.703125 -6.78125q0.03125 -4.125 2.734375 -6.734375q2.71875 -2.625 6.90625 -2.6875zm21.703186 0.4375l0 2.859375l-8.671875 0l0 4.328125l8.09375 0l0 2.875l-8.09375 0l0 5.046875l9.09375 0l0 2.875l-12.109375 0l0 -17.984375l11.6875 0zm5.856964 0l9.625 14.515625l-0.046875 0.046875l-0.453125 -14.5625l3.015625 0l0 17.984375l-3.3125 0l-9.625 -14.515625l0.046875 -0.046875l0.453125 14.5625l-3.015625 0l0 -17.984375l3.3125 0zm27.046967 0l0 2.859375l-8.671875 0l0 4.328125l8.09375 0l0 2.875l-8.09375 0l0 5.046875l9.09375 0l0 2.875l-12.109375 0l0 -17.984375l11.6875 0zm7.685089 0q3.484375 0 5.21875 1.21875q1.75 1.21875 1.75 3.921875q0 2.0 -1.1875 3.3125q-1.1875 1.296875 -2.75 1.5625l4.90625 7.96875l-3.640625 0l-4.609375 -7.625l-1.8125 0l0 7.625l-3.015625 0l0 -17.984375l5.140625 0zm-0.21875 7.484375q2.234375 0 3.125 -0.546875q0.90625 -0.5625 0.90625 -1.765625q0 -1.171875 -0.796875 -1.734375q-0.796875 -0.578125 -2.6875 -0.578125l-2.453125 0l0 4.625l1.90625 0zm17.992065 -7.484375l7.640625 17.984375l-3.421875 0l-1.734375 -4.171875l-7.84375 0l-1.75 4.171875l-3.375 0l7.921875 -17.984375l2.5625 0zm-1.3125 3.15625l-2.828125 7.78125l5.453125 0l-2.671875 -7.796875l0.046875 0.015625zm12.974091 -3.15625l0 15.109375l7.78125 0l0 2.875l-10.796875 0l0 -17.984375l3.015625 0zm11.9999695 0l0 17.984375l-3.015625 0l0 -17.984375l3.015625 0zm15.068085 0l0 2.375l-9.328125 12.734375l9.453125 0l0 2.875l-13.375 0l0 -2.46875l9.328125 -12.65625l-9.1875 0l0 -2.859375l13.109375 0zm13.61972 0l0 2.859375l-8.671875 0l0 4.328125l8.09375 0l0 2.875l-8.09375 0l0 5.046875l9.09375 0l0 2.875l-12.109375 0l0 -17.984375l11.6875 0zm7.685089 0q3.484375 0 5.21875 1.21875q1.75 1.21875 1.75 3.921875q0 2.0 -1.1875 3.3125q-1.1875 1.296875 -2.75 1.5625l4.90625 7.96875l-3.640625 0l-4.609375 -7.625l-1.8125 0l0 7.625l-3.015625 0l0 -17.984375l5.140625 0zm-0.21875 7.484375q2.234375 0 3.125 -0.546875q0.90625 -0.5625 0.90625 -1.765625q0 -1.171875 -0.796875 -1.734375q-0.796875 -0.578125 -2.6875 -0.578125l-2.453125 0l0 4.625l1.90625 0z" fill-rule="nonzero"></path><path fill="#000000" fill-opacity="0.0" d="m290.17914 225.40993l192.25195 0l0 53.070877l-192.25195 0z" fill-rule="evenodd"></path><path stroke="#000000" stroke-width="2.0" stroke-linejoin="round" stroke-linecap="butt" d="m290.17914 225.40993l192.25195 0l0 53.070877l-192.25195 0z" fill-rule="evenodd"></path><path fill="#000000" d="m349.98325 242.50099q3.484375 0 5.21875 1.21875q1.75 1.21875 1.75 3.921875q0 2.0 -1.1875 3.3125q-1.1875 1.296875 -2.75 1.5625l4.90625 7.9687347l-3.640625 0l-4.609375 -7.6249847l-1.8125 0l0 7.6249847l-3.015625 0l0 -17.98436l5.140625 0zm-0.21875 7.484375q2.234375 0 3.125 -0.546875q0.90625 -0.5625 0.90625 -1.765625q0 -1.171875 -0.796875 -1.734375q-0.796875 -0.578125 -2.6875 -0.578125l-2.453125 0l0 4.625l1.90625 0zm12.75769 -7.484375l0 17.98436l-3.015625 0l0 -17.98436l3.015625 0zm6.536865 0l9.625 14.51561l-0.046875 0.046875l-0.453125 -14.562485l3.015625 0l0 17.98436l-3.3125 0l-9.625 -14.51561l0.046875 -0.046875l0.453125 14.562485l-3.015625 0l0 -17.98436l3.3125 0zm24.015686 -0.4375q3.984375 0 6.703125 2.734375l-2.203125 2.296875q-1.1875 -1.234375 -2.296875 -1.6875q-1.109375 -0.46875 -2.34375 -0.46875q-2.703125 0 -4.5 1.875q-1.78125 1.859375 -1.84375 4.671875q0.03125 2.921875 1.84375 4.7187347q1.828125 1.796875 4.6875 1.84375q2.109375 0 3.734375 -0.796875l0 -4.3906097l-3.921875 0l0 -2.875l6.9375 0l0 9.14061q-3.3125 1.796875 -6.859375 1.796875q-4.21875 0 -6.875 -2.65625q-2.65625 -2.6562347 -2.703125 -6.7812347q0.03125 -4.125 2.734375 -6.734375q2.71875 -2.625 6.90625 -2.6875zm21.703217 0.4375l0 2.859375l-8.671875 0l0 4.328125l8.09375 0l0 2.875l-8.09375 0l0 5.0468597l9.09375 0l0 2.875l-12.109375 0l0 -17.98436l11.6875 0zm7.685089 0q3.484375 0 5.21875 1.21875q1.75 1.21875 1.75 3.921875q0 2.0 -1.1875 3.3125q-1.1875 1.296875 -2.75 1.5625l4.90625 7.9687347l-3.640625 0l-4.609375 -7.6249847l-1.8125 0l0 7.6249847l-3.015625 0l0 -17.98436l5.140625 0zm-0.21875 7.484375q2.234375 0 3.125 -0.546875q0.90625 -0.5625 0.90625 -1.765625q0 -1.171875 -0.796875 -1.734375q-0.796875 -0.578125 -2.6875 -0.578125l-2.453125 0l0 4.625l1.90625 0z" fill-rule="nonzero"></path><path fill="#000000" fill-opacity="0.0" d="m22.684383 170.49574l225.20177 0l0 81.5403l44.09459 0" fill-rule="evenodd"></path><path stroke="#652c90" stroke-width="2.0" stroke-linejoin="round" stroke-linecap="butt" d="m22.684383 170.49576l225.20177 0l0 81.54027l32.09459 0" fill-rule="evenodd"></path><path fill="#652c90" stroke="#652c90" stroke-width="2.0" stroke-linecap="butt" d="m279.98074 255.3395l9.076202 -3.3034668l-9.076202 -3.3034668z" fill-rule="evenodd"></path><path fill="#ffffff" d="m94.99803 170.47769l0 0c0 -10.297714 8.347954 -18.645676 18.645668 -18.645676l98.04725 0c4.9451294 0 9.687729 1.964447 13.184479 5.461197c3.4967346 3.4967346 5.4611816 8.239334 5.4611816 13.184479l0 0l0 0c0 10.297714 -8.347946 18.64566 -18.64566 18.64566l-98.04725 0c-10.297714 0 -18.645668 -8.347946 -18.645668 -18.64566z" fill-rule="evenodd"></path><path stroke="#652c90" stroke-width="2.0" stroke-linejoin="round" stroke-linecap="butt" d="m94.99803 170.47769l0 0c0 -10.297714 8.347954 -18.645676 18.645668 -18.645676l98.04725 0c4.9451294 0 9.687729 1.964447 13.184479 5.461197c3.4967346 3.4967346 5.4611816 8.239334 5.4611816 13.184479l0 0l0 0c0 10.297714 -8.347946 18.64566 -18.64566 18.64566l-98.04725 0c-10.297714 0 -18.645668 -8.347946 -18.645668 -18.64566z" fill-rule="evenodd"></path><path fill="#652c90" d="m115.74472 167.25456l0 6.40625q0 0.984375 0.421875 1.5625q0.4375 0.578125 1.390625 0.59375q1.296875 0 1.953125 -0.859375q0.65625 -0.859375 0.65625 -2.390625l0 -5.3125l2.515625 0l0 8.078125q0.015625 0.578125 0.09375 2.625l-2.421875 0q-0.046875 -1.4375 0.328125 -2.0l0.046875 0.03125q-0.078125 1.046875 -1.078125 1.640625q-1.0 0.578125 -2.265625 0.578125q-2.0 -0.015625 -3.078125 -1.203125q-1.078125 -1.203125 -1.078125 -3.15625l0 -6.59375l2.515625 0zm12.79599 -0.25q2.609375 0.015625 3.90625 2.359375l-2.078125 1.375q-0.828125 -1.34375 -1.9375 -1.34375q-0.6875 0 -1.09375 0.28125q-0.40625 0.265625 -0.40625 0.640625q0 0.625 2.109375 0.984375q1.875 0.359375 2.734375 1.1875q0.859375 0.8125 0.859375 2.203125q0 1.65625 -1.234375 2.59375q-1.21875 0.921875 -3.140625 0.921875q-1.5 0 -2.484375 -0.484375q-0.984375 -0.484375 -1.921875 -1.875l1.953125 -1.515625q0.828125 1.0 1.328125 1.25q0.5 0.234375 1.125 0.234375q0.828125 0 1.28125 -0.296875q0.453125 -0.3125 0.453125 -0.765625q0 -0.46875 -0.5 -0.734375q-0.5 -0.28125 -1.9375 -0.578125q-1.578125 -0.328125 -2.359375 -1.0625q-0.78125 -0.734375 -0.78125 -2.046875q0 -1.4375 1.15625 -2.375q1.171875 -0.9375 2.96875 -0.953125zm10.554565 0q2.390625 0 3.734375 1.515625q1.34375 1.5 1.359375 4.1875l0 0.84375l-7.890625 0q0.0625 0.71875 0.84375 1.484375q0.796875 0.765625 1.90625 0.78125q1.78125 0 3.03125 -1.671875l1.921875 1.515625q-1.09375 1.421875 -2.25 1.984375q-1.140625 0.5625 -2.703125 0.5625q-2.4375 0 -3.921875 -1.59375q-1.484375 -1.59375 -1.515625 -4.0q0 -2.40625 1.515625 -3.984375q1.53125 -1.578125 3.96875 -1.625zm2.4375 4.28125q-0.03125 -0.65625 -0.671875 -1.265625q-0.640625 -0.625 -1.859375 -0.625q-1.09375 0 -1.828125 0.609375q-0.734375 0.609375 -0.84375 1.28125l5.203125 0zm9.780365 -4.28125q0.453125 0 1.125 0.25l-0.15625 2.515625q-0.9375 -0.25 -1.296875 -0.25q-1.203125 0 -1.828125 0.796875q-0.609375 0.78125 -0.609375 2.328125l0 5.3125l-2.515625 0l0 -8.078125q0 -0.28125 -0.09375 -2.625l2.4375 0q0.046875 1.90625 -0.34375 2.0l-0.046875 -0.03125q0.09375 -1.0625 1.109375 -1.640625q1.015625 -0.578125 2.21875 -0.578125zm18.843033 -5.796875l0 16.75l-2.515625 0l0.40625 -2.15625l0.03125 0.015625q-0.234375 1.234375 -1.359375 1.8125q-1.125 0.578125 -2.453125 0.578125q-2.265625 0 -3.796875 -1.609375q-1.515625 -1.609375 -1.5625 -3.984375q0 -2.4375 1.5625 -4.015625q1.5625 -1.578125 4.046875 -1.59375q2.328125 0 3.5625 2.046875l-0.03125 0.03125l-0.40625 -7.875l2.515625 0zm-8.609375 11.40625q0 1.4375 0.84375 2.3125q0.859375 0.875 2.203125 0.890625q1.34375 0 2.171875 -0.875q0.84375 -0.875 0.875 -2.328125q0 -1.4375 -0.859375 -2.328125q-0.84375 -0.890625 -2.203125 -0.890625q-1.328125 0 -2.15625 0.890625q-0.828125 0.875 -0.875 2.328125zm15.87529 -5.609375q2.390625 0 3.734375 1.515625q1.34375 1.5 1.359375 4.1875l0 0.84375l-7.890625 0q0.0625 0.71875 0.84375 1.484375q0.796875 0.765625 1.90625 0.78125q1.78125 0 3.03125 -1.671875l1.921875 1.515625q-1.09375 1.421875 -2.25 1.984375q-1.140625 0.5625 -2.703125 0.5625q-2.4375 0 -3.921875 -1.59375q-1.484375 -1.59375 -1.515625 -4.0q0 -2.40625 1.515625 -3.984375q1.53125 -1.578125 3.96875 -1.625zm2.4375 4.28125q-0.03125 -0.65625 -0.671875 -1.265625q-0.640625 -0.625 -1.859375 -0.625q-1.09375 0 -1.828125 0.609375q-0.734375 0.609375 -0.84375 1.28125l5.203125 0zm9.79599 -4.28125q2.53125 0 3.140625 1.359375q0.21875 -0.328125 1.046875 -0.84375q0.828125 -0.515625 2.03125 -0.515625q2.09375 0 3.125 1.140625q1.03125 1.125 1.03125 3.3125l0 6.5l-2.515625 0l0 -6.375q0 -2.15625 -1.953125 -2.1875q-0.921875 0 -1.515625 0.6875q-0.59375 0.6875 -0.59375 1.703125l0 6.171875l-2.515625 0l0 -6.125q0 -1.328125 -0.328125 -1.875q-0.328125 -0.5625 -1.140625 -0.5625q-1.28125 0 -1.9375 0.859375q-0.65625 0.84375 -0.65625 2.453125l0 5.25l-2.515625 0l0 -8.078125q-0.015625 -0.71875 -0.09375 -2.625l2.4375 0q0.046875 1.890625 -0.34375 2.0l-0.046875 -0.03125q0.09375 -1.0625 1.078125 -1.640625q1.0 -0.578125 2.265625 -0.578125zm17.999756 0q2.46875 0 4.046875 1.546875q1.578125 1.53125 1.640625 4.0625q0 2.421875 -1.59375 3.984375q-1.59375 1.5625 -4.09375 1.609375q-2.5 0 -4.078125 -1.578125q-1.5625 -1.59375 -1.609375 -4.015625q0 -2.46875 1.59375 -4.03125q1.59375 -1.5625 4.09375 -1.578125zm-3.046875 5.609375q0 1.4375 0.84375 2.3125q0.859375 0.859375 2.203125 0.890625q1.34375 0 2.1875 -0.875q0.84375 -0.890625 0.859375 -2.328125q0 -1.4375 -0.859375 -2.328125q-0.84375 -0.890625 -2.203125 -0.890625q-1.328125 0 -2.171875 0.890625q-0.84375 0.875 -0.859375 2.328125z" fill-rule="nonzero"></path><path fill="#000000" d="m31.257874 136.21654l0 0c0 -9.532349 7.7274933 -17.259842 17.259842 -17.259842l0 0c4.5775948 0 8.967705 1.8184433 12.204552 5.05529c3.2368507 3.236847 5.05529 7.6269608 5.05529 12.204552l0 0c0 9.532349 -7.7274933 17.259842 -17.259842 17.259842l0 0c-9.532349 0 -17.259842 -7.7274933 -17.259842 -17.259842z" fill-rule="evenodd"></path><path fill="#000000" d="m34.008358 159.01181l29.018715 0l0 0c4.3923836 0 8.60487 1.744873 11.710758 4.850754c3.1058807 3.1058807 4.850754 7.3183746 4.850754 11.710754l0 17.958176c0 2.89917E-4 -2.3651123E-4 5.187988E-4 -5.187988E-4 5.187988E-4l-62.141216 -5.187988E-4l0 0c-2.861023E-4 0 -5.168915E-4 -2.2888184E-4 -5.168915E-4 -5.187988E-4l5.168915E-4 -17.957657l0 0c0 -9.1466675 7.4148407 -16.561508 16.561508 -16.561508z" fill-rule="evenodd"></path><path fill="#000000" fill-opacity="0.0" d="m480.48825 197.13199l0 0c13.01123 -0.47480774 25.40686 3.5230103 32.36795 10.4392395c6.9610596 6.916214 7.3894043 15.659714 1.1184082 22.83133c-6.2709656 7.1716156 -18.251862 11.639908 -31.285004 11.66777l-0.12200928 -22.488068z" fill-rule="evenodd"></path><path fill="#000000" fill-opacity="0.0" d="m480.48825 197.13199l0 0c13.01123 -0.47480774 25.40686 3.5230103 32.36795 10.4392395c6.9610596 6.916214 7.3894043 15.659714 1.1184082 22.83133c-6.2709656 7.1716156 -18.251862 11.639908 -31.285004 11.66777" fill-rule="evenodd"></path><path stroke="#652c90" stroke-width="2.0" stroke-linejoin="round" stroke-linecap="butt" d="m489.48007 197.51608l0.5758667 0.074142456c3.1005554 0.41607666 6.0873413 1.0874329 8.885101 1.9897461c5.5954285 1.8046265 10.434631 4.533142 13.915161 7.9912415c6.9611206 6.9162445 7.3894043 15.659744 1.1184082 22.831345c-6.2709656 7.1716156 -18.251892 11.639908 -31.284973 11.66777" fill-rule="evenodd"></path><path fill="#652c90" stroke="#652c90" stroke-width="2.0" stroke-linecap="butt" d="m489.57446 195.30653l-6.165039 1.9502258l5.9762573 2.4688416z" fill-rule="evenodd"></path><path fill="#ffffff" d="m498.58597 219.58267l0 0c0 -17.925339 14.531342 -32.45668 32.456696 -32.45668l150.92914 0c8.608032 0 16.863525 3.4195251 22.950317 9.506332c6.086853 6.0868225 9.506348 14.3423 9.506348 22.950348l0 0l0 0c0 17.925339 -14.531372 32.456696 -32.456665 32.456696l-150.92914 0c-17.925354 0 -32.456696 -14.531357 -32.456696 -32.456696z" fill-rule="evenodd"></path><path stroke="#652c90" stroke-width="2.0" stroke-linejoin="round" stroke-linecap="butt" d="m498.58597 219.58267l0 0c0 -17.925339 14.531342 -32.45668 32.456696 -32.45668l150.92914 0c8.608032 0 16.863525 3.4195251 22.950317 9.506332c6.086853 6.0868225 9.506348 14.3423 9.506348 22.950348l0 0l0 0c0 17.925339 -14.531372 32.456696 -32.456665 32.456696l-150.92914 0c-17.925354 0 -32.456696 -14.531357 -32.456696 -32.456696z" fill-rule="evenodd"></path><path fill="#652c90" d="m522.238 203.10956q2.609375 0.015625 3.90625 2.359375l-2.078125 1.375q-0.828125 -1.34375 -1.9375 -1.34375q-0.6875 0 -1.09375 0.28125q-0.40625 0.265625 -0.40625 0.640625q0 0.625 2.109375 0.984375q1.875 0.359375 2.734375 1.1875q0.859375 0.8125 0.859375 2.203125q0 1.65625 -1.234375 2.59375q-1.21875 0.921875 -3.140625 0.921875q-1.5 0 -2.484375 -0.484375q-0.984375 -0.484375 -1.921875 -1.875l1.953125 -1.515625q0.828125 1.0 1.328125 1.25q0.5 0.234375 1.125 0.234375q0.828125 0 1.28125 -0.296875q0.453125 -0.3125 0.453125 -0.765625q0 -0.46875 -0.5 -0.734375q-0.5 -0.28125 -1.9375 -0.578125q-1.578125 -0.328125 -2.359375 -1.0625q-0.78125 -0.734375 -0.78125 -2.046875q0 -1.4375 1.15625 -2.375q1.171875 -0.9375 2.96875 -0.953125zm8.992065 -2.546875l0 2.796875l2.90625 0l0 2.265625l-2.90625 0l0 4.8125q0 0.984375 0.25 1.234375q0.25 0.25 0.78125 0.25q0.71875 0 1.859375 -0.59375l0.109375 2.46875q-1.203125 0.515625 -2.359375 0.515625q-1.71875 0 -2.4375 -0.875q-0.71875 -0.890625 -0.71875 -2.75l0 -5.0625l-2.140625 0l0 -2.265625l2.140625 0l0 -2.796875l2.515625 0zm9.429382 2.546875q0.453125 0 1.125 0.25l-0.15625 2.515625q-0.9375 -0.25 -1.296875 -0.25q-1.203125 0 -1.828125 0.796875q-0.609375 0.78125 -0.609375 2.328125l0 5.3125l-2.515625 0l0 -8.078125q0 -0.28125 -0.09375 -2.625l2.4375 0q0.046875 1.90625 -0.34375 2.0l-0.046875 -0.03125q0.09375 -1.0625 1.109375 -1.640625q1.015625 -0.578125 2.21875 -0.578125zm6.4450684 0q2.328125 0 3.421875 1.140625q1.109375 1.125 1.140625 3.34375l0 4.421875q0 0.59375 0.203125 2.046875l-2.34375 0q-0.265625 -0.515625 0.125 -1.859375l0.046875 0.046875q-0.921875 2.015625 -3.28125 2.0625q-1.765625 0 -2.9375 -0.90625q-1.15625 -0.921875 -1.15625 -2.453125q0 -2.03125 1.625 -2.953125q1.640625 -0.921875 4.890625 -0.921875l0.46875 0.15625l-0.15625 0q0 -1.703125 -2.0 -1.734375q-1.59375 0 -2.9375 1.234375l-1.640625 -1.6875q1.953125 -1.890625 4.53125 -1.9375zm-2.140625 7.6875q0 1.21875 1.71875 1.25q1.09375 0 1.78125 -0.6875q0.6875 -0.6875 0.6875 -2.078125l0.0625 0l-1.4375 0.0625q-1.328125 0 -2.0625 0.375q-0.734375 0.375 -0.75 1.078125zm10.397461 -12.484375q0.65625 0 1.140625 0.484375q0.5 0.46875 0.5 1.15625q0 0.71875 -0.46875 1.1875q-0.453125 0.453125 -1.171875 0.453125q-0.703125 0 -1.171875 -0.453125q-0.453125 -0.46875 -0.453125 -1.1875q0 -0.6875 0.46875 -1.15625q0.484375 -0.484375 1.15625 -0.484375zm1.265625 5.046875l0 10.703125l-2.515625 0l0 -10.703125l2.515625 0zm7.5250244 -0.25q1.25 0 2.3125 0.59375q1.0625 0.578125 1.21875 1.734375l-0.03125 0.015625l-0.40625 -2.09375l2.515625 0l0 9.921875q0 2.703125 -1.46875 4.234375q-1.46875 1.546875 -4.328125 1.59375q-1.515625 0 -2.78125 -0.453125q-1.25 -0.453125 -2.640625 -1.84375l1.78125 -2.015625q1.75 1.921875 3.640625 1.921875q3.28125 0 3.28125 -3.515625l0.40625 -1.25l0.03125 0.03125q-0.265625 1.171875 -1.34375 1.6875q-1.078125 0.515625 -2.1875 0.515625q-2.4375 0 -4.015625 -1.53125q-1.578125 -1.546875 -1.625 -3.9375q0 -2.5625 1.5625 -4.078125q1.5625 -1.515625 4.078125 -1.53125zm-3.0 5.609375q0 1.28125 0.875 2.171875q0.890625 0.890625 2.15625 0.90625q1.40625 0 2.234375 -0.890625q0.828125 -0.890625 0.828125 -2.234375q0 -1.4375 -0.859375 -2.296875q-0.84375 -0.859375 -2.234375 -0.875q-1.296875 0 -2.15625 0.921875q-0.84375 0.90625 -0.84375 2.296875zm13.468994 -11.40625l-0.390625 7.796875l-0.046875 -0.03125q0.171875 -0.984375 1.125 -1.46875q0.96875 -0.5 2.09375 -0.5q2.046875 0 3.09375 1.203125q1.0625 1.203125 1.0625 3.15625l0 6.59375l-2.515625 0l0 -6.40625q0 -0.984375 -0.421875 -1.5625q-0.40625 -0.578125 -1.390625 -0.59375q-1.296875 0 -1.953125 0.859375q-0.65625 0.84375 -0.65625 2.390625l0 5.3125l-2.515625 0l0 -16.75l2.515625 0zm12.7022705 3.25l0 2.796875l2.90625 0l0 2.265625l-2.90625 0l0 4.8125q0 0.984375 0.25 1.234375q0.25 0.25 0.78125 0.25q0.71875 0 1.859375 -0.59375l0.109375 2.46875q-1.203125 0.515625 -2.359375 0.515625q-1.71875 0 -2.4375 -0.875q-0.71875 -0.890625 -0.71875 -2.75l0 -5.0625l-2.140625 0l0 -2.265625l2.140625 0l0 -2.796875l2.515625 0zm9.538757 6.828125l0 2.390625l-6.015625 0l0 -2.390625l6.015625 0zm4.383545 -10.078125l0 16.75l-2.515625 0l0 -16.75l2.515625 0zm3.8531494 1.0q0.65625 0 1.140625 0.484375q0.5 0.46875 0.5 1.15625q0 0.71875 -0.46875 1.1875q-0.453125 0.453125 -1.171875 0.453125q-0.703125 0 -1.171875 -0.453125q-0.453125 -0.46875 -0.453125 -1.1875q0 -0.6875 0.46875 -1.15625q0.484375 -0.484375 1.15625 -0.484375zm1.265625 5.046875l0 10.703125l-2.515625 0l0 -10.703125l2.515625 0zm7.7281494 -0.25q2.046875 0 3.109375 1.203125q1.0625 1.203125 1.0625 3.15625l0 6.59375l-2.515625 0l0 -6.40625q0 -0.984375 -0.421875 -1.5625q-0.40625 -0.578125 -1.390625 -0.59375q-1.296875 0 -1.953125 0.859375q-0.65625 0.84375 -0.65625 2.453125l0 5.25l-2.515625 0l0 -8.078125q0 -0.09375 -0.09375 -2.625l2.4375 0q0.046875 1.90625 -0.34375 2.0l-0.046875 -0.03125q0.09375 -1.0625 1.109375 -1.640625q1.015625 -0.578125 2.21875 -0.578125zm11.4991455 0q2.390625 0 3.734375 1.515625q1.34375 1.5 1.359375 4.1875l0 0.84375l-7.890625 0q0.0625 0.71875 0.84375 1.484375q0.796875 0.765625 1.90625 0.78125q1.78125 0 3.03125 -1.671875l1.921875 1.515625q-1.09375 1.421875 -2.25 1.984375q-1.140625 0.5625 -2.703125 0.5625q-2.4375 0 -3.921875 -1.59375q-1.484375 -1.59375 -1.515625 -4.0q0 -2.40625 1.515625 -3.984375q1.53125 -1.578125 3.96875 -1.625zm2.4375 4.28125q-0.03125 -0.65625 -0.671875 -1.265625q-0.640625 -0.625 -1.859375 -0.625q-1.09375 0 -1.828125 0.609375q-0.734375 0.609375 -0.84375 1.28125l5.203125 0zm15.709595 -4.28125q0.453125 0 1.125 0.25l-0.15625 2.515625q-0.9375 -0.25 -1.296875 -0.25q-1.203125 0 -1.828125 0.796875q-0.609375 0.78125 -0.609375 2.328125l0 5.3125l-2.515625 0l0 -8.078125q0 -0.28125 -0.09375 -2.625l2.4375 0q0.046875 1.90625 -0.34375 2.0l-0.046875 -0.03125q0.09375 -1.0625 1.109375 -1.640625q1.015625 -0.578125 2.21875 -0.578125zm7.1481934 0q2.390625 0 3.734375 1.515625q1.34375 1.5 1.359375 4.1875l0 0.84375l-7.890625 0q0.0625 0.71875 0.84375 1.484375q0.796875 0.765625 1.90625 0.78125q1.78125 0 3.03125 -1.671875l1.921875 1.515625q-1.09375 1.421875 -2.25 1.984375q-1.140625 0.5625 -2.703125 0.5625q-2.4375 0 -3.921875 -1.59375q-1.484375 -1.59375 -1.515625 -4.0q0 -2.40625 1.515625 -3.984375q1.53125 -1.578125 3.96875 -1.625zm2.4375 4.28125q-0.03125 -0.65625 -0.671875 -1.265625q-0.640625 -0.625 -1.859375 -0.625q-1.09375 0 -1.828125 0.609375q-0.734375 0.609375 -0.84375 1.28125l5.203125 0zm10.061584 -4.28125q2.53125 0 4.0625 1.609375q1.53125 1.59375 1.546875 4.0q0 2.375 -1.5625 3.96875q-1.546875 1.578125 -3.78125 1.625q-1.375 0 -2.5 -0.59375q-1.125 -0.609375 -1.328125 -1.765625l0.046875 -0.03125l0.390625 6.921875l-2.515625 0l0 -15.484375l2.515625 0l-0.390625 1.8125l-0.046875 -0.0625q1.28125 -2.0 3.5625 -2.0zm-3.125 5.609375q0 1.4375 0.84375 2.3125q0.859375 0.859375 2.203125 0.890625q1.34375 0 2.1875 -0.875q0.84375 -0.890625 0.859375 -2.328125q0 -1.4375 -0.859375 -2.328125q-0.84375 -0.890625 -2.203125 -0.890625q-1.328125 0 -2.171875 0.890625q-0.84375 0.875 -0.859375 2.328125zm13.26593 -11.40625l0 16.75l-2.515625 0l0 -16.75l2.515625 0zm6.6656494 5.796875q2.328125 0 3.421875 1.140625q1.109375 1.125 1.140625 3.34375l0 4.421875q0 0.59375 0.203125 2.046875l-2.34375 0q-0.265625 -0.515625 0.125 -1.859375l0.046875 0.046875q-0.921875 2.015625 -3.28125 2.0625q-1.765625 0 -2.9375 -0.90625q-1.15625 -0.921875 -1.15625 -2.453125q0 -2.03125 1.625 -2.953125q1.640625 -0.921875 4.890625 -0.921875l0.46875 0.15625l-0.15625 0q0 -1.703125 -2.0 -1.734375q-1.59375 0 -2.9375 1.234375l-1.640625 -1.6875q1.953125 -1.890625 4.53125 -1.9375zm-2.140625 7.6875q0 1.21875 1.71875 1.25q1.09375 0 1.78125 -0.6875q0.6875 -0.6875 0.6875 -2.078125l0.0625 0l-1.4375 0.0625q-1.328125 0 -2.0625 0.375q-0.734375 0.375 -0.75 1.078125zm10.303711 -7.4375l2.78125 8.09375l-0.03125 0l2.65625 -8.09375l2.71875 0l-5.03125 12.84375q-0.625 1.578125 -1.453125 2.234375q-0.8125 0.671875 -2.171875 0.671875q-1.0 0 -1.953125 -0.453125l0.34375 -2.375q0.765625 0.4375 1.5625 0.4375q0.875 0 1.296875 -1.15625l0.671875 -1.859375l-4.265625 -10.34375l2.875 0z" fill-rule="nonzero"></path><path fill="#652c90" d="m585.2415 229.10956q2.609375 0.015625 3.90625 2.359375l-2.078125 1.375q-0.828125 -1.34375 -1.9375 -1.34375q-0.6875 0 -1.09375 0.28125q-0.40625 0.265625 -0.40625 0.640625q0 0.625 2.109375 0.984375q1.875 0.359375 2.734375 1.1875q0.859375 0.8125 0.859375 2.203125q0 1.65625 -1.234375 2.59375q-1.21875 0.921875 -3.140625 0.921875q-1.5 0 -2.484375 -0.484375q-0.984375 -0.484375 -1.921875 -1.875l1.953125 -1.515625q0.828125 1.0 1.328125 1.25q0.5 0.234375 1.125 0.234375q0.828125 0 1.28125 -0.296875q0.453125 -0.3125 0.453125 -0.765625q0 -0.46875 -0.5 -0.734375q-0.5 -0.28125 -1.9375 -0.578125q-1.578125 -0.328125 -2.359375 -1.0625q-0.78125 -0.734375 -0.78125 -2.046875q0 -1.4375 1.15625 -2.375q1.171875 -0.9375 2.96875 -0.953125zm10.617065 0q2.515625 0 4.375 2.015625l-1.96875 1.75q-1.140625 -1.375 -2.4375 -1.375q-1.34375 0 -2.109375 0.859375q-0.765625 0.859375 -0.765625 2.359375q0 1.390625 0.828125 2.296875q0.828125 0.890625 2.046875 0.90625q1.40625 0 2.4375 -1.4375l1.890625 1.78125q-1.765625 2.03125 -4.328125 2.046875q-2.421875 -0.015625 -3.953125 -1.546875q-1.515625 -1.53125 -1.5625 -4.046875q0.03125 -2.546875 1.609375 -4.078125q1.578125 -1.53125 3.9375 -1.53125zm10.577087 0q0.453125 0 1.125 0.25l-0.15625 2.515625q-0.9375 -0.25 -1.296875 -0.25q-1.203125 0 -1.828125 0.796875q-0.609375 0.78125 -0.609375 2.328125l0 5.3125l-2.515625 0l0 -8.078125q0 -0.28125 -0.09375 -2.625l2.4375 0q0.046875 1.90625 -0.34375 2.0l-0.046875 -0.03125q0.09375 -1.0625 1.109375 -1.640625q1.015625 -0.578125 2.21875 -0.578125zm3.6325073 -4.796875q0.65625 0 1.140625 0.484375q0.5 0.46875 0.5 1.15625q0 0.71875 -0.46875 1.1875q-0.453125 0.453125 -1.171875 0.453125q-0.703125 0 -1.171875 -0.453125q-0.453125 -0.46875 -0.453125 -1.1875q0 -0.6875 0.46875 -1.15625q0.484375 -0.484375 1.15625 -0.484375zm1.265625 5.046875l0 10.703125l-2.515625 0l0 -10.703125l2.515625 0zm8.009399 -0.25q2.53125 0 4.0625 1.609375q1.53125 1.59375 1.546875 4.0q0 2.375 -1.5625 3.96875q-1.546875 1.578125 -3.78125 1.625q-1.375 0 -2.5 -0.59375q-1.125 -0.609375 -1.328125 -1.765625l0.046875 -0.03125l0.390625 6.921875l-2.515625 0l0 -15.484375l2.515625 0l-0.390625 1.8125l-0.046875 -0.0625q1.28125 -2.0 3.5625 -2.0zm-3.125 5.609375q0 1.4375 0.84375 2.3125q0.859375 0.859375 2.203125 0.890625q1.34375 0 2.1875 -0.875q0.84375 -0.890625 0.859375 -2.328125q0 -1.4375 -0.859375 -2.328125q-0.84375 -0.890625 -2.203125 -0.890625q-1.328125 0 -2.171875 0.890625q-0.84375 0.875 -0.859375 2.328125zm13.95343 -8.15625l0 2.796875l2.90625 0l0 2.265625l-2.90625 0l0 4.8125q0 0.984375 0.25 1.234375q0.25 0.25 0.78125 0.25q0.71875 0 1.859375 -0.59375l0.109375 2.46875q-1.203125 0.515625 -2.359375 0.515625q-1.71875 0 -2.4375 -0.875q-0.71875 -0.890625 -0.71875 -2.75l0 -5.0625l-2.140625 0l0 -2.265625l2.140625 0l0 -2.796875l2.515625 0z" fill-rule="nonzero"></path><path fill="#000000" fill-opacity="0.0" d="m480.46558 129.63937l0 0c13.013458 -0.48007202 25.415344 3.514557 32.382507 10.430374c6.967224 6.9158173 7.4000244 15.66127 1.130188 22.835205c-6.269867 7.173935 -18.252838 11.644058 -31.288666 11.671936l-0.12200928 -22.488068z" fill-rule="evenodd"></path><path fill="#000000" fill-opacity="0.0" d="m480.46558 129.63937l0 0c13.013458 -0.48007202 25.415344 3.514557 32.382507 10.430374c6.967224 6.9158173 7.4000244 15.66127 1.130188 22.835205c-6.269867 7.173935 -18.252838 11.644058 -31.288666 11.671936" fill-rule="evenodd"></path><path stroke="#652c90" stroke-width="2.0" stroke-linejoin="round" stroke-linecap="butt" d="m489.45755 130.01984l0.5780945 0.07420349c3.1015625 0.41505432 6.089508 1.085495 8.88858 1.9870605c5.597992 1.8031311 10.440277 4.530731 13.923859 7.9886475c6.967224 6.9158173 7.4000244 15.66127 1.130188 22.835205c-6.269867 7.173935 -18.252838 11.644058 -31.288635 11.671936" fill-rule="evenodd"></path><path fill="#652c90" stroke="#652c90" stroke-width="2.0" stroke-linecap="butt" d="m489.55103 127.810265l-6.1642456 1.9527054l5.9772644 2.466446z" fill-rule="evenodd"></path><path fill="#ffffff" d="m498.58597 146.62204l0 0c0 -17.925323 14.531342 -32.456688 32.456696 -32.456688l150.92914 0c8.608032 0 16.863525 3.4195404 22.950317 9.506348c6.086853 6.086815 9.506348 14.342293 9.506348 22.95034l0 0l0 0c0 17.925339 -14.531372 32.456696 -32.456665 32.456696l-150.92914 0c-17.925354 0 -32.456696 -14.531357 -32.456696 -32.456696z" fill-rule="evenodd"></path><path stroke="#652c90" stroke-width="2.0" stroke-linejoin="round" stroke-linecap="butt" d="m498.58597 146.62204l0 0c0 -17.925323 14.531342 -32.456688 32.456696 -32.456688l150.92914 0c8.608032 0 16.863525 3.4195404 22.950317 9.506348c6.086853 6.086815 9.506348 14.342293 9.506348 22.95034l0 0l0 0c0 17.925339 -14.531372 32.456696 -32.456665 32.456696l-150.92914 0c-17.925354 0 -32.456696 -14.531357 -32.456696 -32.456696z" fill-rule="evenodd"></path><path fill="#652c90" d="m524.9865 124.35205l0 16.75l-2.515625 0l0 -16.75l2.515625 0zm7.5718994 5.796875q2.46875 0 4.046875 1.546875q1.578125 1.53125 1.640625 4.0625q0 2.421875 -1.59375 3.984375q-1.59375 1.5625 -4.09375 1.609375q-2.5 0 -4.078125 -1.578125q-1.5625 -1.59375 -1.609375 -4.015625q0 -2.46875 1.59375 -4.03125q1.59375 -1.5625 4.09375 -1.578125zm-3.046875 5.609375q0 1.4375 0.84375 2.3125q0.859375 0.859375 2.203125 0.890625q1.34375 0 2.1875 -0.875q0.84375 -0.890625 0.859375 -2.328125q0 -1.4375 -0.859375 -2.328125q-0.84375 -0.890625 -2.203125 -0.890625q-1.328125 0 -2.171875 0.890625q-0.84375 0.875 -0.859375 2.328125zm15.715881 -5.609375q2.46875 0 4.046875 1.546875q1.578125 1.53125 1.640625 4.0625q0 2.421875 -1.59375 3.984375q-1.59375 1.5625 -4.09375 1.609375q-2.5 0 -4.078125 -1.578125q-1.5625 -1.59375 -1.609375 -4.015625q0 -2.46875 1.59375 -4.03125q1.59375 -1.5625 4.09375 -1.578125zm-3.046875 5.609375q0 1.4375 0.84375 2.3125q0.859375 0.859375 2.203125 0.890625q1.34375 0 2.1875 -0.875q0.84375 -0.890625 0.859375 -2.328125q0 -1.4375 -0.859375 -2.328125q-0.84375 -0.890625 -2.203125 -0.890625q-1.328125 0 -2.171875 0.890625q-0.84375 0.875 -0.859375 2.328125zm16.15332 -5.609375q2.53125 0 4.0625 1.609375q1.53125 1.59375 1.546875 4.0q0 2.375 -1.5625 3.96875q-1.546875 1.578125 -3.78125 1.625q-1.375 0 -2.5 -0.59375q-1.125 -0.609375 -1.328125 -1.765625l0.046875 -0.03125l0.390625 6.921875l-2.515625 0l0 -15.484375l2.515625 0l-0.390625 1.8125l-0.046875 -0.0625q1.28125 -2.0 3.5625 -2.0zm-3.125 5.609375q0 1.4375 0.84375 2.3125q0.859375 0.859375 2.203125 0.890625q1.34375 0 2.1875 -0.875q0.84375 -0.890625 0.859375 -2.328125q0 -1.4375 -0.859375 -2.328125q-0.84375 -0.890625 -2.203125 -0.890625q-1.328125 0 -2.171875 0.890625q-0.84375 0.875 -0.859375 2.328125zm11.906555 -5.359375l2.78125 8.09375l-0.03125 0l2.65625 -8.09375l2.71875 0l-5.03125 12.84375q-0.625 1.578125 -1.453125 2.234375q-0.8125 0.671875 -2.171875 0.671875q-1.0 0 -1.953125 -0.453125l0.34375 -2.375q0.765625 0.4375 1.5625 0.4375q0.875 0 1.296875 -1.15625l0.671875 -1.859375l-4.265625 -10.34375l2.875 0zm19.975037 -0.25q1.25 0 2.3125 0.59375q1.0625 0.578125 1.21875 1.734375l-0.03125 0.015625l-0.40625 -2.09375l2.515625 0l0 9.921875q0 2.703125 -1.46875 4.234375q-1.46875 1.546875 -4.328125 1.59375q-1.515625 0 -2.78125 -0.453125q-1.25 -0.453125 -2.640625 -1.84375l1.78125 -2.015625q1.75 1.921875 3.640625 1.921875q3.28125 0 3.28125 -3.515625l0.40625 -1.25l0.03125 0.03125q-0.265625 1.171875 -1.34375 1.6875q-1.078125 0.515625 -2.1875 0.515625q-2.4375 0 -4.015625 -1.53125q-1.578125 -1.546875 -1.625 -3.9375q0 -2.5625 1.5625 -4.078125q1.5625 -1.515625 4.078125 -1.53125zm-3.0 5.609375q0 1.28125 0.875 2.171875q0.890625 0.890625 2.15625 0.90625q1.40625 0 2.234375 -0.890625q0.828125 -0.890625 0.828125 -2.234375q0 -1.4375 -0.859375 -2.296875q-0.84375 -0.859375 -2.234375 -0.875q-1.296875 0 -2.15625 0.921875q-0.84375 0.90625 -0.84375 2.296875zm15.875305 -5.609375q2.390625 0 3.734375 1.515625q1.34375 1.5 1.359375 4.1875l0 0.84375l-7.890625 0q0.0625 0.71875 0.84375 1.484375q0.796875 0.765625 1.90625 0.78125q1.78125 0 3.03125 -1.671875l1.921875 1.515625q-1.09375 1.421875 -2.25 1.984375q-1.140625 0.5625 -2.703125 0.5625q-2.4375 0 -3.921875 -1.59375q-1.484375 -1.59375 -1.515625 -4.0q0 -2.40625 1.515625 -3.984375q1.53125 -1.578125 3.96875 -1.625zm2.4375 4.28125q-0.03125 -0.65625 -0.671875 -1.265625q-0.640625 -0.625 -1.859375 -0.625q-1.09375 0 -1.828125 0.609375q-0.734375 0.609375 -0.84375 1.28125l5.203125 0zm9.780334 -4.28125q2.046875 0 3.109375 1.203125q1.0625 1.203125 1.0625 3.15625l0 6.59375l-2.515625 0l0 -6.40625q0 -0.984375 -0.421875 -1.5625q-0.40625 -0.578125 -1.390625 -0.59375q-1.296875 0 -1.953125 0.859375q-0.65625 0.84375 -0.65625 2.453125l0 5.25l-2.515625 0l0 -8.078125q0 -0.09375 -0.09375 -2.625l2.4375 0q0.046875 1.90625 -0.34375 2.0l-0.046875 -0.03125q0.09375 -1.0625 1.109375 -1.640625q1.015625 -0.578125 2.21875 -0.578125zm11.4991455 0q2.390625 0 3.734375 1.515625q1.34375 1.5 1.359375 4.1875l0 0.84375l-7.890625 0q0.0625 0.71875 0.84375 1.484375q0.796875 0.765625 1.90625 0.78125q1.78125 0 3.03125 -1.671875l1.921875 1.515625q-1.09375 1.421875 -2.25 1.984375q-1.140625 0.5625 -2.703125 0.5625q-2.4375 0 -3.921875 -1.59375q-1.484375 -1.59375 -1.515625 -4.0q0 -2.40625 1.515625 -3.984375q1.53125 -1.578125 3.96875 -1.625zm2.4375 4.28125q-0.03125 -0.65625 -0.671875 -1.265625q-0.640625 -0.625 -1.859375 -0.625q-1.09375 0 -1.828125 0.609375q-0.734375 0.609375 -0.84375 1.28125l5.203125 0zm9.780334 -4.28125q0.453125 0 1.125 0.25l-0.15625 2.515625q-0.9375 -0.25 -1.296875 -0.25q-1.203125 0 -1.828125 0.796875q-0.609375 0.78125 -0.609375 2.328125l0 5.3125l-2.515625 0l0 -8.078125q0 -0.28125 -0.09375 -2.625l2.4375 0q0.046875 1.90625 -0.34375 2.0l-0.046875 -0.03125q0.09375 -1.0625 1.109375 -1.640625q1.015625 -0.578125 2.21875 -0.578125zm6.4450684 0q2.328125 0 3.421875 1.140625q1.109375 1.125 1.140625 3.34375l0 4.421875q0 0.59375 0.203125 2.046875l-2.34375 0q-0.265625 -0.515625 0.125 -1.859375l0.046875 0.046875q-0.921875 2.015625 -3.28125 2.0625q-1.765625 0 -2.9375 -0.90625q-1.15625 -0.921875 -1.15625 -2.453125q0 -2.03125 1.625 -2.953125q1.640625 -0.921875 4.890625 -0.921875l0.46875 0.15625l-0.15625 0q0 -1.703125 -2.0 -1.734375q-1.59375 0 -2.9375 1.234375l-1.640625 -1.6875q1.953125 -1.890625 4.53125 -1.9375zm-2.140625 7.6875q0 1.21875 1.71875 1.25q1.09375 0 1.78125 -0.6875q0.6875 -0.6875 0.6875 -2.078125l0.0625 0l-1.4375 0.0625q-1.328125 0 -2.0625 0.375q-0.734375 0.375 -0.75 1.078125zm11.663086 -13.484375l0 16.75l-2.515625 0l0 -16.75l2.515625 0zm3.8531494 1.0q0.65625 0 1.140625 0.484375q0.5 0.46875 0.5 1.15625q0 0.71875 -0.46875 1.1875q-0.453125 0.453125 -1.171875 0.453125q-0.703125 0 -1.171875 -0.453125q-0.453125 -0.46875 -0.453125 -1.1875q0 -0.6875 0.46875 -1.15625q0.484375 -0.484375 1.15625 -0.484375zm1.265625 5.046875l0 10.703125l-2.515625 0l0 -10.703125l2.515625 0zm10.321899 0l0 1.859375l-5.296875 6.578125l5.4375 0l0 2.265625l-8.9375 0l0 -1.875l5.296875 -6.5625l-5.046875 0l0 -2.265625l8.546875 0zm6.5166016 -0.25q2.390625 0 3.734375 1.515625q1.34375 1.5 1.359375 4.1875l0 0.84375l-7.890625 0q0.0625 0.71875 0.84375 1.484375q0.796875 0.765625 1.90625 0.78125q1.78125 0 3.03125 -1.671875l1.921875 1.515625q-1.09375 1.421875 -2.25 1.984375q-1.140625 0.5625 -2.703125 0.5625q-2.4375 0 -3.921875 -1.59375q-1.484375 -1.59375 -1.515625 -4.0q0 -2.40625 1.515625 -3.984375q1.53125 -1.578125 3.96875 -1.625zm2.4375 4.28125q-0.03125 -0.65625 -0.671875 -1.265625q-0.640625 -0.625 -1.859375 -0.625q-1.09375 0 -1.828125 0.609375q-0.734375 0.609375 -0.84375 1.28125l5.203125 0zm15.186584 -10.078125l0 16.75l-2.515625 0l0.40625 -2.15625l0.03125 0.015625q-0.234375 1.234375 -1.359375 1.8125q-1.125 0.578125 -2.453125 0.578125q-2.265625 0 -3.796875 -1.609375q-1.515625 -1.609375 -1.5625 -3.984375q0 -2.4375 1.5625 -4.015625q1.5625 -1.578125 4.046875 -1.59375q2.328125 0 3.5625 2.046875l-0.03125 0.03125l-0.40625 -7.875l2.515625 0zm-8.609375 11.40625q0 1.4375 0.84375 2.3125q0.859375 0.875 2.203125 0.890625q1.34375 0 2.171875 -0.875q0.84375 -0.875 0.875 -2.328125q0 -1.4375 -0.859375 -2.328125q-0.84375 -0.890625 -2.203125 -0.890625q-1.328125 0 -2.15625 0.890625q-0.828125 0.875 -0.875 2.328125z" fill-rule="nonzero"></path><path fill="#652c90" d="m585.2415 156.14893q2.609375 0.015625 3.90625 2.359375l-2.078125 1.375q-0.828125 -1.34375 -1.9375 -1.34375q-0.6875 0 -1.09375 0.28125q-0.40625 0.265625 -0.40625 0.640625q0 0.625 2.109375 0.984375q1.875 0.359375 2.734375 1.1875q0.859375 0.8125 0.859375 2.203125q0 1.65625 -1.234375 2.59375q-1.21875 0.921875 -3.140625 0.921875q-1.5 0 -2.484375 -0.484375q-0.984375 -0.484375 -1.921875 -1.875l1.953125 -1.515625q0.828125 1.0 1.328125 1.25q0.5 0.234375 1.125 0.234375q0.828125 0 1.28125 -0.296875q0.453125 -0.3125 0.453125 -0.765625q0 -0.46875 -0.5 -0.734375q-0.5 -0.28125 -1.9375 -0.578125q-1.578125 -0.328125 -2.359375 -1.0625q-0.78125 -0.734375 -0.78125 -2.046875q0 -1.4375 1.15625 -2.375q1.171875 -0.9375 2.96875 -0.953125zm10.617065 0q2.515625 0 4.375 2.015625l-1.96875 1.75q-1.140625 -1.375 -2.4375 -1.375q-1.34375 0 -2.109375 0.859375q-0.765625 0.859375 -0.765625 2.359375q0 1.390625 0.828125 2.296875q0.828125 0.890625 2.046875 0.90625q1.40625 0 2.4375 -1.4375l1.890625 1.78125q-1.765625 2.03125 -4.328125 2.046875q-2.421875 -0.015625 -3.953125 -1.546875q-1.515625 -1.53125 -1.5625 -4.046875q0.03125 -2.546875 1.609375 -4.078125q1.578125 -1.53125 3.9375 -1.53125zm10.577087 0q0.453125 0 1.125 0.25l-0.15625 2.515625q-0.9375 -0.25 -1.296875 -0.25q-1.203125 0 -1.828125 0.796875q-0.609375 0.78125 -0.609375 2.328125l0 5.3125l-2.515625 0l0 -8.078125q0 -0.28125 -0.09375 -2.625l2.4375 0q0.046875 1.90625 -0.34375 2.0l-0.046875 -0.03125q0.09375 -1.0625 1.109375 -1.640625q1.015625 -0.578125 2.21875 -0.578125zm3.6325073 -4.796875q0.65625 0 1.140625 0.484375q0.5 0.46875 0.5 1.15625q0 0.71875 -0.46875 1.1875q-0.453125 0.453125 -1.171875 0.453125q-0.703125 0 -1.171875 -0.453125q-0.453125 -0.46875 -0.453125 -1.1875q0 -0.6875 0.46875 -1.15625q0.484375 -0.484375 1.15625 -0.484375zm1.265625 5.046875l0 10.703125l-2.515625 0l0 -10.703125l2.515625 0zm8.009399 -0.25q2.53125 0 4.0625 1.609375q1.53125 1.59375 1.546875 4.0q0 2.375 -1.5625 3.96875q-1.546875 1.578125 -3.78125 1.625q-1.375 0 -2.5 -0.59375q-1.125 -0.609375 -1.328125 -1.765625l0.046875 -0.03125l0.390625 6.921875l-2.515625 0l0 -15.484375l2.515625 0l-0.390625 1.8125l-0.046875 -0.0625q1.28125 -2.0 3.5625 -2.0zm-3.125 5.609375q0 1.4375 0.84375 2.3125q0.859375 0.859375 2.203125 0.890625q1.34375 0 2.1875 -0.875q0.84375 -0.890625 0.859375 -2.328125q0 -1.4375 -0.859375 -2.328125q-0.84375 -0.890625 -2.203125 -0.890625q-1.328125 0 -2.171875 0.890625q-0.84375 0.875 -0.859375 2.328125zm13.95343 -8.15625l0 2.796875l2.90625 0l0 2.265625l-2.90625 0l0 4.8125q0 0.984375 0.25 1.234375q0.25 0.25 0.78125 0.25q0.71875 0 1.859375 -0.59375l0.109375 2.46875q-1.203125 0.515625 -2.359375 0.515625q-1.71875 0 -2.4375 -0.875q-0.71875 -0.890625 -0.71875 -2.75l0 -5.0625l-2.140625 0l0 -2.265625l2.140625 0l0 -2.796875l2.515625 0z" fill-rule="nonzero"></path><path fill="#000000" fill-opacity="0.0" d="m483.88385 98.74016l274.70868 0l0 73.19685l183.96063 -0.1653595" fill-rule="evenodd"></path><path stroke="#652c90" stroke-width="2.0" stroke-linejoin="round" stroke-linecap="butt" d="m483.88385 98.74016l274.70868 0l0 73.19685l171.96063 -0.15457153" fill-rule="evenodd"></path><path fill="#652c90" stroke="#652c90" stroke-width="2.0" stroke-linecap="butt" d="m930.55615 175.0859l9.073181 -3.3116302l-9.079163 -3.2953033z" fill-rule="evenodd"></path><path fill="#ffffff" d="m777.50195 170.47769l0 0c0 -10.297714 8.347961 -18.645676 18.64569 -18.645676l98.04724 0c4.9451294 0 9.687744 1.964447 13.184448 5.461197c3.4967651 3.4967346 5.4612427 8.239334 5.4612427 13.184479l0 0l0 0c0 10.297714 -8.347961 18.64566 -18.64569 18.64566l-98.04724 0c-10.2977295 0 -18.64569 -8.347946 -18.64569 -18.64566z" fill-rule="evenodd"></path><path stroke="#652c90" stroke-width="2.0" stroke-linejoin="round" stroke-linecap="butt" d="m777.50195 170.47769l0 0c0 -10.297714 8.347961 -18.645676 18.64569 -18.645676l98.04724 0c4.9451294 0 9.687744 1.964447 13.184448 5.461197c3.4967651 3.4967346 5.4612427 8.239334 5.4612427 13.184479l0 0l0 0c0 10.297714 -8.347961 18.64566 -18.64569 18.64566l-98.04724 0c-10.2977295 0 -18.64569 -8.347946 -18.64569 -18.64566z" fill-rule="evenodd"></path><path fill="#652c90" d="m800.4154 167.25456l1.96875 7.9375l-0.046875 0l2.28125 -7.9375l2.34375 0l2.3125 7.9375l-0.046875 0l1.9375 -7.9375l2.6875 0l-3.453125 10.703125l-2.21875 0l-2.546875 -7.9375l0.046875 0l-2.203125 7.9375l-2.3125 0l-3.484375 -10.703125l2.734375 0zm19.413574 -0.25q2.390625 0 3.734375 1.515625q1.34375 1.5 1.359375 4.1875l0 0.84375l-7.890625 0q0.0625 0.71875 0.84375 1.484375q0.796875 0.765625 1.90625 0.78125q1.78125 0 3.03125 -1.671875l1.921875 1.515625q-1.09375 1.421875 -2.25 1.984375q-1.140625 0.5625 -2.703125 0.5625q-2.4375 0 -3.921875 -1.59375q-1.484375 -1.59375 -1.515625 -4.0q0 -2.40625 1.515625 -3.984375q1.53125 -1.578125 3.96875 -1.625zm2.4375 4.28125q-0.03125 -0.65625 -0.671875 -1.265625q-0.640625 -0.625 -1.859375 -0.625q-1.09375 0 -1.828125 0.609375q-0.734375 0.609375 -0.84375 1.28125l5.203125 0zm6.9365845 -10.078125l-0.390625 7.859375l-0.046875 -0.0625q1.265625 -1.984375 3.5625 -2.0q2.53125 0 4.0625 1.59375q1.53125 1.59375 1.546875 4.015625q0 2.34375 -1.53125 3.953125q-1.53125 1.59375 -3.8125 1.640625q-1.375 0 -2.5 -0.59375q-1.125 -0.609375 -1.328125 -1.765625l0.046875 -0.03125l0.390625 2.140625l-2.515625 0l0 -16.75l2.515625 0zm0 11.40625q0 1.4375 0.875 2.328125q0.875 0.875 2.171875 0.875q1.34375 0 2.1875 -0.875q0.84375 -0.890625 0.859375 -2.328125q0 -1.4375 -0.859375 -2.328125q-0.84375 -0.890625 -2.203125 -0.890625q-1.328125 0 -2.171875 0.890625q-0.84375 0.875 -0.859375 2.328125zm27.210815 -11.40625l0 16.75l-2.515625 0l0.40625 -2.15625l0.03125 0.015625q-0.234375 1.234375 -1.359375 1.8125q-1.125 0.578125 -2.453125 0.578125q-2.265625 0 -3.796875 -1.609375q-1.515625 -1.609375 -1.5625 -3.984375q0 -2.4375 1.5625 -4.015625q1.5625 -1.578125 4.046875 -1.59375q2.328125 0 3.5625 2.046875l-0.03125 0.03125l-0.40625 -7.875l2.515625 0zm-8.609375 11.40625q0 1.4375 0.84375 2.3125q0.859375 0.875 2.203125 0.890625q1.34375 0 2.171875 -0.875q0.84375 -0.875 0.875 -2.328125q0 -1.4375 -0.859375 -2.328125q-0.84375 -0.890625 -2.203125 -0.890625q-1.328125 0 -2.15625 0.890625q-0.828125 0.875 -0.875 2.328125zm15.17218 -5.609375q2.328125 0 3.421875 1.140625q1.109375 1.125 1.140625 3.34375l0 4.421875q0 0.59375 0.203125 2.046875l-2.34375 0q-0.265625 -0.515625 0.125 -1.859375l0.046875 0.046875q-0.921875 2.015625 -3.28125 2.0625q-1.765625 0 -2.9375 -0.90625q-1.15625 -0.921875 -1.15625 -2.453125q0 -2.03125 1.625 -2.953125q1.640625 -0.921875 4.890625 -0.921875l0.46875 0.15625l-0.15625 0q0 -1.703125 -2.0 -1.734375q-1.59375 0 -2.9375 1.234375l-1.640625 -1.6875q1.953125 -1.890625 4.53125 -1.9375zm-2.140625 7.6875q0 1.21875 1.71875 1.25q1.09375 0 1.78125 -0.6875q0.6875 -0.6875 0.6875 -2.078125l0.0625 0l-1.4375 0.0625q-1.328125 0 -2.0625 0.375q-0.734375 0.375 -0.75 1.078125zm12.350586 -10.234375l0 2.796875l2.90625 0l0 2.265625l-2.90625 0l0 4.8125q0 0.984375 0.25 1.234375q0.25 0.25 0.78125 0.25q0.71875 0 1.859375 -0.59375l0.109375 2.46875q-1.203125 0.515625 -2.359375 0.515625q-1.71875 0 -2.4375 -0.875q-0.71875 -0.890625 -0.71875 -2.75l0 -5.0625l-2.140625 0l0 -2.265625l2.140625 0l0 -2.796875l2.515625 0zm8.366882 2.546875q2.328125 0 3.421875 1.140625q1.109375 1.125 1.140625 3.34375l0 4.421875q0 0.59375 0.203125 2.046875l-2.34375 0q-0.265625 -0.515625 0.125 -1.859375l0.046875 0.046875q-0.921875 2.015625 -3.28125 2.0625q-1.765625 0 -2.9375 -0.90625q-1.15625 -0.921875 -1.15625 -2.453125q0 -2.03125 1.625 -2.953125q1.640625 -0.921875 4.890625 -0.921875l0.46875 0.15625l-0.15625 0q0 -1.703125 -2.0 -1.734375q-1.59375 0 -2.9375 1.234375l-1.640625 -1.6875q1.953125 -1.890625 4.53125 -1.9375zm-2.140625 7.6875q0 1.21875 1.71875 1.25q1.09375 0 1.78125 -0.6875q0.6875 -0.6875 0.6875 -2.078125l0.0625 0l-1.4375 0.0625q-1.328125 0 -2.0625 0.375q-0.734375 0.375 -0.75 1.078125zm12.116211 -12.484375l0 11.59375l-2.640625 0l0 -11.59375l2.640625 0zm0.375 14.171875q0 0.703125 -0.5 1.203125q-0.5 0.5 -1.1875 0.5q-0.65625 0 -1.1875 -0.5q-0.515625 -0.5 -0.515625 -1.203125q0 -0.703125 0.484375 -1.1875q0.5 -0.5 1.21875 -0.5q0.703125 0 1.1875 0.515625q0.5 0.5 0.5 1.171875z" fill-rule="nonzero"></path></g></svg>

